<svg width="1440" height="426" id="svg" viewBox="0 0 1440 426" xmlns="http://www.w3.org/2000/svg"><defs><linearGradient id="gradient" x1="50%" y1="0%" x2="50%" y2="100%"><stop offset="0%" stop-color="rgba(48, 207, 208, 1)"></stop><stop offset="100%" stop-color="rgba(51, 8, 103, 1)"></stop></linearGradient></defs><path d="M 0,436 C 0,436 0,109 0,109 C 128.66666666666663,83.80000000000001 257.33333333333326,58.60000000000001 422,70 C 586.6666666666667,81.39999999999999 787.3333333333335,129.4 963,142 C 1138.6666666666665,154.6 1289.3333333333333,131.8 1440,109 C 1440,109 1440,436 1440,436 Z" stroke="none" stroke-width="0" fill="url(#gradient)" fill-opacity="0.4" class="path-0" style="transition-property: all; transition-timing-function: cubic-bezier(0.4, 0, 0.2, 1); transition-duration: 300ms; transition-delay: 150ms;"></path><path d="M 0,436 C 0,436 0,218 0,218 C 142.8,236.26666666666665 285.6,254.53333333333333 470,243 C 654.4,231.46666666666667 880.4000000000001,190.13333333333333 1049,181 C 1217.6,171.86666666666667 1328.8,194.93333333333334 1440,218 C 1440,218 1440,436 1440,436 Z" stroke="none" stroke-width="0" fill="url(#gradient)" fill-opacity="0.53" class="path-1" style="transition-property: all; transition-timing-function: cubic-bezier(0.4, 0, 0.2, 1); transition-duration: 300ms; transition-delay: 150ms;"></path><path d="M 0,436 C 0,436 0,327 0,327 C 145.46666666666664,329.6666666666667 290.9333333333333,332.33333333333337 459,330 C 627.0666666666667,327.66666666666663 817.7333333333333,320.3333333333333 985,319 C 1152.2666666666667,317.6666666666667 1296.1333333333332,322.33333333333337 1440,327 C 1440,327 1440,436 1440,436 Z" stroke="none" stroke-width="0" fill="url(#gradient)" fill-opacity="1" class="path-2" style="transition-property: all; transition-timing-function: cubic-bezier(0.4, 0, 0.2, 1); transition-duration: 300ms; transition-delay: 150ms;"></path></svg>